# xmcd
#
# Track frame offsets:
#	150
#	22467
#	44956
#	58857
#	78669
#	101756
#	117326
#	133541
#	149546
#	174177
#	191357
#	208810
#
# Disc length: 2946 seconds
#
# Revision: 1
# Processed by: cddbd v1.5.1PL0 Copyright (c) Steve Scherf et al.
# Submitted via: audiograbber 1.82.02
#
DISCID=bd0b800c
DTITLE=Unicorn - Blue Pine Trees
DYEAR=2005
DGENRE=Alternative Country
TTITLE0=Electric Night
TTITLE1=Sleep Song
TTITLE2=Autumn Wine
TTITLE3=Rat Race
TTITLE4=Just Wanna Hold You
TTITLE5=Holland
TTITLE6=Nightingale Crescent
TTITLE7=The Farmer
TTITLE8=In The Gym
TTITLE9=Blue Pine Trees
TTITLE10=Ooh Mother
TTITLE11=Take It Easy (Bonus Track)
EXTD=Originally released 1974
EXTT0=
EXTT1=
EXTT2=
EXTT3=
EXTT4=
EXTT5=
EXTT6=
EXTT7=
EXTT8=
EXTT9=
EXTT10=
EXTT11=
PLAYORDER=
